<svg width="786" height="786" viewBox="0 0 786 786" fill="none" xmlns="http://www.w3.org/2000/svg">
<g clip-path="url(#clip0_3_7)">
<path d="M786 393C786 610.048 610.048 786 393 786C175.952 786 0 610.048 0 393C0 175.952 175.952 0 393 0C610.048 0 786 175.952 786 393ZM123.526 393C123.526 541.826 244.174 662.474 393 662.474C541.826 662.474 662.474 541.826 662.474 393C662.474 244.174 541.826 123.526 393 123.526C244.174 123.526 123.526 244.174 123.526 393Z" fill="white"/>
<path d="M393 167C517.816 167 619 268.184 619 393C619 517.816 517.816 619 393 619C268.184 619 167 517.816 167 393C167 268.184 268.184 167 393 167ZM308.002 296.109C269.809 296.109 241 325.305 241 362.921C241 399.88 268.39 429.405 303.964 429.405C320.987 429.405 337.683 422.625 349.905 408.41H353.725C346.304 435.31 321.424 460.46 287.486 469.536C283.558 470.848 280.284 471.833 278.538 473.254C276.029 474.676 274.61 476.753 274.61 479.924C274.61 485.391 278.647 489 284.54 489C289.232 489 292.834 488.125 298.727 486.267C318.369 480.143 335.938 469.099 349.469 454.774C368.129 435.201 379.587 409.066 379.587 378.339C379.587 326.18 346.632 296.109 308.002 296.109ZM474.415 296.109C436.222 296.109 407.523 325.305 407.522 362.921C407.522 399.88 434.803 429.405 470.377 429.405C487.509 429.405 504.097 422.625 516.428 408.41H520.138C512.826 435.31 487.837 460.46 453.791 469.536C449.863 470.848 446.807 471.833 444.952 473.254C442.551 474.676 441.023 476.753 441.023 479.924C441.023 485.391 445.061 489 451.062 489C455.646 489 459.356 488.125 465.14 486.267C484.782 480.143 502.351 469.099 515.882 454.774C534.542 435.201 546 409.066 546 378.339C546 326.18 513.045 296.109 474.415 296.109Z" fill="white"/>
</g>
<defs>
<clipPath id="clip0_3_7">
<rect width="786" height="786" fill="white"/>
</clipPath>
</defs>
</svg>
